<?xml version="1.0" encoding="utf-8"?>
<!-- Generator: Adobe Illustrator 24.3.0, SVG Export Plug-In . SVG Version: 6.00 Build 0)  -->
<svg version="1.1" id="Layer_1" xmlns="http://www.w3.org/2000/svg" xmlns:xlink="http://www.w3.org/1999/xlink" x="0px" y="0px"
	 viewBox="0 0 612 792" style="enable-background:new 0 0 612 792;" xml:space="preserve">
<style type="text/css">
	.st0{fill:#272626;}
	.st1{fill:#616261;}
	.st2{fill:#2B97CD;}
	.st3{fill:#66AD46;}
	.st4{fill:#CA4640;}
	.st5{fill:#F7DB2B;}
	.st6{fill:#E5E5E3;}
</style>
<path class="st0" d="M577.53,452.39c0,20.52-1.87,38.92-9.73,56.19c-6.57,14.43-16.68,25.34-32.05,30.61
	c-6.77,2.32-13.65,3.89-20.78,1.69c-1.59-0.49-3.33-1.18-4.5-2.31c-28.94-27.86-57.86-55.75-86.64-83.79
	c-3.26-3.18-6.49-4.58-11.11-4.57c-76.29,0.14-152.59,0.13-228.89-0.02c-3.37-0.01-5.19,1.48-7.16,3.52
	c-24.83,25.72-49.65,51.45-74.5,77.16c-5.89,6.1-13.1,9.38-21.58,9.92c-23.9,1.5-42.36-9.44-52.49-31.11
	c-3.62-7.75-5.9-15.9-7.29-24.3c-3.32-20.09-2.33-40.18,0.44-60.23C28.4,373.54,45.59,325,66.8,277.77
	c7.74-17.24,16.6-33.99,24.92-50.97c1.94-3.96,3.98-7.89,5.62-11.98c3.4-8.47,9.25-14.98,16.1-20.71c1.17-0.98,2.84-1.38,4.32-1.95
	c23.74-9.16,47.5-18.26,71.21-27.48c3.66-1.42,7.29-1.22,10.95-0.56c7.59,1.35,14.68,4.29,21.01,8.52c8,5.35,16.47,7.04,26.03,6.95
	c39.12-0.36,78.24-0.18,117.36-0.11c2.81,0.01,5.1-0.71,7.36-2.34c4.6-3.3,9.16-6.73,14.11-9.43c4.29-2.33,8.96-4.34,13.71-5.29
	c3.42-0.69,7.53-0.18,10.82,1.11c22.69,8.92,45.24,18.18,67.84,27.34c1.64,0.66,3.21,1.5,4.88,2.06
	c10.41,3.51,15.75,11.5,18.79,21.42c0.69,2.25,1.39,4.08,3.54,5.53c1.65,1.11,2.87,3.13,3.79,4.99
	c23.84,47.89,44.25,97.12,57.19,149.18C572.86,400.37,577.37,426.99,577.53,452.39z M212.77,209.6c0.74,0.33,1.48,0.65,2.22,0.98
	c0.23,1,0.16,2.24,0.74,2.96c7.23,8.93,14.36,17.99,23.16,25.47c5.21,4.43,10.9,7.38,18.3,6.8c7.91-0.62,15.92-0.14,23.88-0.14
	c3.48,0,6.95,0,10.43,0c-6.89-3.26-13.34-6.62-17.45-13.24c-4.19-6.75-5.96-14.02-4.13-21.81c3.06-13,13.59-21.88,25.57-22.54
	c14.81-0.82,25.33,7.22,29.74,19.95c2.77,8,1.44,15.78-2.66,22.98c-4.06,7.14-10.53,11.5-18.33,14.19
	c14.04,0.46,27.83,0.55,41.61,0.34c1.67-0.02,3.65-1.3,4.91-2.57c8.33-8.42,16.55-16.96,24.72-25.55c2.53-2.66,4.79-5.57,7.01-8.16
	c-5.23-5.43-8.62-11.64-12.5-17.49c-1.57-2.37,0.05-3.95,1.49-5.55c1.36,1.01,3.1,1.75,4.03,3.07c3.63,5.14,7.01,10.46,10.51,15.75
	c3.58-3.93,7.35-8.13,11.18-12.26c3.54-3.82,7.89-4.84,13.04-4.19c5.65,0.71,10.89,2.41,16.26,4.24
	c20.09,6.85,40.37,13.15,60.57,19.68c2.62,0.85,5.21,1.77,8.45,2.88c-2.63-7.88-6.65-13.52-14.02-16.28
	c-2.65-0.99-5.3-1.98-7.92-3.04c-22.3-9.02-44.58-18.11-66.93-27c-1.96-0.78-4.54-0.87-6.62-0.39
	c-11.39,2.66-20.06,10.04-28.85,17.17c-43.33-0.01-86.65-0.17-129.98,0.11c-7.28,0.05-13.41-1.97-19.43-5.56
	c-6.52-3.88-13.04-7.75-20.61-9.5c-4.49-1.04-8.62-0.84-12.93,0.85c-17.94,7-35.97,13.77-53.91,20.76
	c-7.36,2.87-15.18,4.86-21.23,10.43c-3.72,3.42-6.92,7.15-8.66,13.09c2.5-0.65,4.01-0.95,5.46-1.43
	c23.5-7.71,47.02-15.38,70.48-23.21c4.56-1.52,9-2.07,13.32,0.17c2.46,1.28,4.87,2.91,6.83,4.86
	C204.78,200.65,208.71,205.19,212.77,209.6z M571.18,453.6c-0.01-19.22-3.06-43.35-8.06-65.66c-7.71-34.42-18.6-67.83-32.33-100.28
	c-8.4-19.85-17.85-39.25-26.72-58.91c-1.27-2.81-3.13-4.48-6.01-5.41c-4.36-1.42-8.62-3.18-12.98-4.61
	c-21.48-7.05-43.03-13.9-64.43-21.16c-4.09-1.39-8.17-1.96-12.33-2.64c-2.55-0.42-4.52,0.24-6.22,2.03
	c-2.55,2.7-5.24,5.29-7.58,8.16c-13,15.95-27.67,30.31-42.14,44.87c-1.15,1.16-2.87,2.34-4.38,2.43
	c-5.28,0.32-10.58,0.17-15.87,0.18c-13.28,0.01-26.55-0.06-39.83,0.02c-12.91,0.08-25.82,0.37-38.72,0.45
	c-1.71,0.01-3.65-0.3-5.1-1.13c-4.89-2.78-10.03-5.37-14.3-8.97c-5.25-4.42-9.92-9.58-14.46-14.76
	c-7.24-8.24-14.27-16.68-21.18-25.19c-4.86-5.99-10.35-7.43-17.81-4.91c-23.59,7.97-47.3,15.61-71.07,23.05
	c-6.78,2.12-11.27,6.2-14.35,12.3c-4.15,8.21-8.43,16.34-12.44,24.62C60,305.34,41.13,354.02,30.85,405.7
	c-4.57,22.96-7.24,46.11-4.93,69.58c1.27,12.95,4,25.48,10.65,36.87c7.23,12.39,17.85,20.06,32.13,21.79
	c5.89,0.71,11.97-0.13,17.96-0.24c3.44-0.06,5.82-1.77,8.16-4.21c26.12-27.19,52.34-54.27,78.52-81.39
	c2.21-2.28,4.18-4.06,7.99-4.05c78.42,0.16,156.84,0.14,235.26-0.05c3.99-0.01,6.68,1.33,9.28,3.86
	c17.64,17.14,35.28,34.28,52.94,51.4c11.69,11.33,23.42,22.63,35.12,33.95c1.52,1.47,2.89,2.92,5.4,2.76
	c11.5-0.72,21.78-4.32,30.31-12.31c7.14-6.7,11.79-14.95,14.99-24.09C569.88,484.68,571.36,469.26,571.18,453.6z M297.88,194.54
	c-11.99-0.02-21.93,9.84-22.03,21.86c-0.1,12.18,10.06,22.6,22.22,22.21c13.13-0.42,21.82-9.87,21.84-22.26
	C319.93,204.5,310.23,194.58,297.88,194.54z"/>
<path class="st1" d="M371.48,186.22c-1.45,1.59-3.07,3.18-1.5,5.54c3.88,5.85,7.27,12.06,12.5,17.49c-2.21,2.59-4.48,5.5-7.01,8.16
	c-8.17,8.58-16.38,17.13-24.72,25.55c-1.26,1.27-3.24,2.55-4.91,2.57c-13.79,0.21-27.58,0.12-41.61-0.34
	c7.8-2.69,14.27-7.05,18.33-14.19c4.1-7.21,5.42-14.99,2.66-22.98c-4.4-12.72-14.93-20.77-29.74-19.95
	c-11.98,0.66-22.51,9.54-25.57,22.54c-1.83,7.79-0.06,15.06,4.13,21.81c4.1,6.62,10.56,9.98,17.45,13.24c-3.48,0-6.95,0-10.43,0
	c-7.96,0-15.96-0.48-23.88,0.14c-7.4,0.58-13.09-2.36-18.3-6.8c-8.8-7.48-15.93-16.54-23.16-25.47c-0.58-0.72-0.51-1.96-0.74-2.96
	l0.15-0.19c1.24-0.56,3.04-0.77,3.65-1.73c3.76-5.92,7.31-11.98,10.8-18.06c0.87-1.51,0.6-3.4-1.14-4
	c-1.01-0.35-2.55,0.34-3.66,0.92c-0.68,0.35-1.03,1.38-1.48,2.12c-2.74,4.49-5.6,8.92-8.15,13.52c-0.97,1.75-1.22,3.89-1.8,5.85
	c-0.2,0.19-0.4,0.39-0.6,0.58c-4.06-4.42-7.99-8.96-12.23-13.19c-1.95-1.95-4.36-3.58-6.83-4.86c-4.32-2.24-8.76-1.69-13.32-0.17
	c-23.46,7.82-46.98,15.5-70.48,23.21c-1.45,0.47-2.95,0.78-5.46,1.43c1.74-5.94,4.94-9.67,8.66-13.09
	c6.05-5.57,13.87-7.56,21.23-10.43c17.94-6.99,35.97-13.75,53.91-20.76c4.31-1.68,8.44-1.89,12.93-0.85
	c7.56,1.75,14.09,5.62,20.61,9.5c6.02,3.59,12.14,5.6,19.43,5.56c43.32-0.28,86.65-0.12,129.98-0.11L371.48,186.22z"/>
<path class="st1" d="M371.18,185.84c8.79-7.12,17.45-14.51,28.85-17.17c2.08-0.49,4.65-0.4,6.62,0.39
	c22.35,8.9,44.63,17.98,66.93,27c2.62,1.06,5.27,2.05,7.92,3.04c7.37,2.76,11.39,8.39,14.02,16.28c-3.24-1.11-5.83-2.04-8.45-2.88
	c-20.2-6.52-40.48-12.83-60.57-19.68c-5.37-1.83-10.61-3.53-16.26-4.24c-5.15-0.65-9.49,0.37-13.04,4.19
	c-3.84,4.13-7.6,8.33-11.18,12.26c-3.5-5.29-6.88-10.61-10.51-15.75c-0.93-1.32-2.66-2.06-4.03-3.07
	C371.48,186.22,371.18,185.84,371.18,185.84z"/>
<path class="st1" d="M215,210.58c-0.74-0.33-1.48-0.65-2.22-0.98c0.2-0.19,0.39-0.39,0.59-0.58c0.59,0.46,1.19,0.91,1.79,1.36
	L215,210.58z"/>
<path class="st0" d="M211.38,284.37c-0.57,29.07-23.96,52-52.52,51.48c-28.85-0.52-51.64-24.09-51.1-52.84
	c0.54-28.38,23.95-51.34,51.91-50.91C188.82,232.56,211.94,255.94,211.38,284.37z M127.97,284.15
	c-0.79,16.59,14.95,31.96,31.78,31.57c16.49-0.38,31.28-12.53,31.52-31.41c0.22-17.78-12.53-31.37-31.38-32.11
	C142.19,251.49,127.93,266.2,127.97,284.15z"/>
<path class="st0" d="M219.37,413.4c-8.15-5.26-7.37-13.73-7.38-22.13c-7.38,0.24-14.27-0.15-19.31-5.91
	c-3.17-3.63-4.51-7.95-4.24-12.75c0.61-10.96,8.26-16.97,22.09-17.13c0.36-2.85,0.58-5.79,1.12-8.66
	c1.37-7.24,7.06-12.49,14.87-13.93c6.48-1.19,14.47,2.23,17.95,7.86c0.69,1.12,1.05,2.58,1.12,3.91c0.16,3.15,0.05,6.32,0.05,9.59
	c4.99,0.67,9.59,0.79,13.88,2.01c4.61,1.31,7.34,5.31,9.76,9.29c1.6,4.95,1.55,9.91,0.06,14.87c-0.76,1.17-1.46,2.4-2.31,3.51
	c-3,3.94-6.71,6.62-11.9,6.81c-2.77,0.1-5.53,0.43-8.7,0.69c-0.16,3.01-0.3,5.78-0.47,8.54c-0.71,11.38-9.75,18.19-21.02,15.84
	c-0.68-0.14-1.36-0.35-2.03-0.53C221.72,414.66,220.55,414.03,219.37,413.4z"/>
<path class="st0" d="M422.52,368.7c0.03,27.14-21.87,49.07-48.9,48.96c-26.72-0.1-48.42-21.9-48.62-48.84
	c-0.2-26.78,22.09-49.04,49.03-48.94C400.83,319.98,422.49,341.79,422.52,368.7z M410.76,368.46c1.07-18.68-16.19-37.41-37.6-36.87
	c-19.82,0.5-36.7,15.55-36.66,37.5c0.03,19.65,15.36,36.8,37.85,36.86C393.67,406.01,411.9,388.97,410.76,368.46z"/>
<path class="st0" d="M374.45,282.7c-0.02-13.9,10.94-24.88,24.84-24.92c13.79-0.03,24.96,11.07,25,24.86
	c0.03,11.86-8.74,24.59-24.92,25.01C385.7,308,374.47,296.45,374.45,282.7z M399.54,299.02c10.34,0.55,16.88-9.01,16.57-16.78
	c-0.43-10.54-8.76-16.26-16.7-16.51c-9.15-0.28-16.68,7.57-16.67,16.88C382.75,292.3,389.7,299.09,399.54,299.02z"/>
<path class="st0" d="M438.25,346.57c-11.04,0.78-24.64-9.26-24.66-24.48c-0.02-13.95,10.81-25.04,24.62-25.18
	c12.12-0.12,24.76,8.6,25.29,24.62C463.96,335.53,452.48,346.58,438.25,346.57z M422.07,321.88c0,9.47,6.89,16.39,16.33,16.41
	c9.67,0.01,16.76-7.05,16.78-16.69c0.01-9.08-7.94-17.03-17.08-16.58C428.58,305.49,421.73,312.48,422.07,321.88z"/>
<path class="st0" d="M452.92,282.6c0.13-13.88,11.24-24.9,25.03-24.81c13.83,0.09,25.11,11.26,24.92,24.97
	c-0.18,12.62-9.35,24.58-25.07,24.87C464.08,307.88,452.79,296.17,452.92,282.6z M461.48,282.92c0.04,9.11,7.48,16.71,16.29,16.65
	c9.3-0.06,17.07-7.75,16.8-16.83c-0.26-9.03-7.09-16.56-17.03-16.46C468.32,266.36,460.5,274.74,461.48,282.92z"/>
<path class="st0" d="M438.67,270.07c-13.88-0.11-24.91-11.28-24.72-25.03c0.19-13.73,11.54-24.82,25.24-24.65
	c13.88,0.17,24.65,11.18,24.59,25.16C463.72,259.42,452.7,270.18,438.67,270.07z M455.14,245.25c-0.03-8.94-7.17-16.27-16.02-16.44
	c-8.81-0.17-16.54,7.58-16.56,16.59c-0.01,9.13,7.44,16.37,16.7,16.22C448.35,261.48,455.17,254.44,455.14,245.25z"/>
<path class="st0" d="M261.43,263.99c10.76,0.05,19.56,8.96,19.41,19.68c-0.14,10.39-9.02,19.2-19.4,19.24
	c-10.76,0.04-19.64-8.78-19.61-19.48C241.86,272.62,250.6,263.95,261.43,263.99z M255.18,283.2c-0.11,3.56,2.69,6.51,6.17,6.5
	c3.21-0.02,5.91-2.75,6.01-6.08c0.11-3.44-2.26-6.14-5.59-6.36C258.17,277.02,255.29,279.61,255.18,283.2z"/>
<path class="st0" d="M317.09,282.13c0.24-10.8,9.12-19.36,19.89-19.16c11.04,0.2,19.61,9.13,19.4,20.22
	c-0.2,10.63-9.57,19.7-19.91,19.28C325.28,302.03,316.84,293.17,317.09,282.13z M336.77,289.11c3.5-0.02,6.42-2.8,6.56-6.25
	c0.14-3.56-3.01-6.68-6.71-6.65c-3.51,0.03-6.43,2.83-6.54,6.27C329.95,286.09,333.03,289.13,336.77,289.11z"/>
<path class="st0" d="M215.15,210.39c-0.6-0.45-1.19-0.91-1.79-1.36c0.58-1.97,0.84-4.11,1.8-5.85c2.55-4.6,5.41-9.03,8.15-13.52
	c0.46-0.75,0.8-1.77,1.48-2.12c1.11-0.58,2.65-1.28,3.66-0.92c1.74,0.61,2.01,2.49,1.14,4c-3.49,6.08-7.04,12.14-10.8,18.06
	C218.19,209.62,216.39,209.83,215.15,210.39z"/>
<path class="st0" d="M298.83,224.22c-1.62,2.13-3.04,4.16-4.65,6.03c-0.9,1.05-2.02,2-3.22,2.7c-2.5,1.46-4.94,0.92-6.56-1.24
	c-1.53-2.04-1.48-4.12,0.51-6.21c2.27-2.4,4.75-4.6,7.37-7.1c-2.97-2.73-5.61-5.05-8.13-7.49c-2.61-2.53-2.94-5.25-1.07-7.43
	c1.87-2.18,4.73-2.24,7.5,0.05c2.84,2.35,5.54,4.87,8.7,7.66c2.5-2.45,4.8-4.81,7.22-7.03c2.87-2.63,5.26-2.8,7.43-0.71
	c1.97,1.9,1.93,5.04-0.46,7.53c-2.07,2.15-4.46,3.98-7.21,6.39c2.27,2.14,3.89,3.66,5.5,5.19c3.39,3.23,3.85,5.66,1.54,8.14
	c-2.19,2.36-4.78,2.06-8.31-1C303.26,228.19,301.58,226.66,298.83,224.22z"/>
<path class="st1" d="M127.97,284.15c-0.04-17.94,14.22-32.66,31.92-31.96c18.85,0.75,31.61,14.33,31.38,32.11
	c-0.24,18.88-15.03,31.03-31.52,31.41C142.92,316.1,127.18,300.73,127.97,284.15z M135.35,283.74c-0.02,13.61,9.79,23.28,23.23,23.7
	c14.01,0.44,24.14-12.66,23.87-23.3c-0.3-11.95-9.3-23.59-23.46-23.79C144.94,260.16,134.61,272.39,135.35,283.74z"/>
<path class="st1" d="M410.76,368.46c1.14,20.52-17.09,37.55-36.4,37.5c-22.49-0.06-37.82-17.21-37.85-36.86
	c-0.04-21.95,16.84-37,36.66-37.5C394.57,331.04,411.83,349.78,410.76,368.46z M374.68,393.27c12.66,0.93,24.71-11.32,24.44-24.07
	c-0.28-13.21-10.82-23.96-24.02-24.06c-13.49-0.1-24.49,10.49-24.84,23.93C349.91,382.11,361.16,393.26,374.68,393.27z"/>
<path class="st2" d="M399.54,299.02c-9.84,0.07-16.79-6.72-16.8-16.41c-0.01-9.31,7.52-17.16,16.67-16.88
	c7.93,0.25,16.27,5.97,16.7,16.51C416.43,290.01,409.88,299.56,399.54,299.02z"/>
<path class="st3" d="M422.07,321.88c-0.34-9.4,6.51-16.4,16.03-16.86c9.14-0.45,17.09,7.5,17.08,16.58
	c-0.02,9.64-7.11,16.71-16.78,16.69C428.96,338.27,422.07,331.35,422.07,321.88z"/>
<path class="st4" d="M461.48,282.92c-0.98-8.18,6.84-16.56,16.06-16.65c9.94-0.1,16.77,7.43,17.03,16.46
	c0.26,9.08-7.5,16.77-16.8,16.83C468.96,299.63,461.52,292.03,461.48,282.92z"/>
<path class="st5" d="M455.14,245.25c0.03,9.19-6.79,16.23-15.87,16.37c-9.26,0.15-16.72-7.1-16.7-16.22
	c0.01-9.01,7.75-16.76,16.56-16.59C447.97,228.98,455.11,236.31,455.14,245.25z"/>
<path class="st6" d="M255.18,283.2c0.11-3.59,2.99-6.18,6.59-5.94c3.33,0.22,5.7,2.92,5.59,6.36c-0.1,3.34-2.81,6.07-6.01,6.08
	C257.87,289.72,255.07,286.76,255.18,283.2z"/>
<g>
	<path class="st6" d="M571.18,453.6c-0.01-19.22-3.06-43.35-8.06-65.66c-7.71-34.42-18.6-67.83-32.33-100.28
		c-8.4-19.85-17.85-39.25-26.72-58.91c-1.27-2.81-3.13-4.48-6.01-5.41c-4.36-1.42-8.62-3.18-12.98-4.61
		c-21.48-7.05-43.03-13.9-64.43-21.16c-4.09-1.39-8.17-1.96-12.34-2.64c-2.55-0.42-4.52,0.24-6.22,2.03
		c-2.55,2.7-5.24,5.29-7.58,8.16c-13,15.95-27.67,30.31-42.14,44.87c-1.15,1.16-2.87,2.34-4.38,2.43
		c-5.28,0.32-10.58,0.17-15.87,0.18c-13.28,0.01-26.55-0.06-39.83,0.02c-12.91,0.08-25.82,0.37-38.72,0.45
		c-1.71,0.01-3.65-0.3-5.1-1.13c-4.89-2.78-10.03-5.37-14.3-8.97c-5.25-4.42-9.92-9.58-14.46-14.76
		c-7.24-8.24-14.27-16.68-21.18-25.19c-4.86-5.99-10.35-7.43-17.81-4.91c-23.59,7.97-47.3,15.61-71.07,23.05
		c-6.78,2.12-11.27,6.2-14.35,12.3c-4.15,8.21-8.43,16.34-12.44,24.62C60,305.34,41.13,354.02,30.85,405.7
		c-4.57,22.96-7.24,46.11-4.93,69.58c1.27,12.95,4,25.48,10.65,36.87c7.23,12.39,17.85,20.06,32.13,21.79
		c5.89,0.71,11.97-0.13,17.96-0.24c3.44-0.06,5.82-1.77,8.16-4.21c26.12-27.19,52.34-54.27,78.52-81.39
		c2.21-2.28,4.18-4.06,7.99-4.05c78.42,0.16,156.84,0.14,235.26-0.05c3.99-0.01,6.68,1.33,9.28,3.86
		c17.64,17.14,35.28,34.28,52.94,51.4c11.69,11.33,23.42,22.63,35.12,33.95c1.52,1.47,2.89,2.92,5.4,2.76
		c11.5-0.72,21.78-4.32,30.31-12.31c7.14-6.7,11.79-14.95,14.99-24.09C569.88,484.68,571.36,469.26,571.18,453.6z M158.86,335.86
		c-28.85-0.52-51.64-24.09-51.1-52.84c0.54-28.38,23.95-51.34,51.91-50.91c29.14,0.45,52.26,23.83,51.7,52.26
		C210.81,313.44,187.42,336.37,158.86,335.86z M269.34,380.42c-0.77,1.17-1.46,2.4-2.31,3.51c-3,3.94-6.71,6.62-11.9,6.81
		c-2.77,0.1-5.53,0.43-8.7,0.69c-0.16,3.01-0.3,5.78-0.47,8.54c-0.71,11.38-9.75,18.19-21.02,15.84c-0.68-0.14-1.36-0.35-2.03-0.53
		h0c-1.18-0.63-2.35-1.26-3.53-1.89c-8.15-5.26-7.37-13.73-7.38-22.13c-7.38,0.24-14.27-0.15-19.31-5.91
		c-3.17-3.63-4.51-7.95-4.24-12.75c0.61-10.96,8.26-16.97,22.09-17.13c0.36-2.85,0.58-5.79,1.12-8.66
		c1.37-7.24,7.06-12.49,14.87-13.93c6.48-1.19,14.47,2.23,17.95,7.86c0.69,1.12,1.05,2.58,1.12,3.91c0.16,3.15,0.05,6.32,0.05,9.59
		c4.99,0.67,9.59,0.79,13.88,2.01c4.61,1.31,7.34,5.31,9.76,9.29v0C270.87,370.5,270.83,375.46,269.34,380.42L269.34,380.42z
		 M261.44,302.92c-10.76,0.04-19.64-8.78-19.61-19.48c0.03-10.82,8.77-19.48,19.6-19.44c10.76,0.05,19.56,8.96,19.41,19.68
		C280.71,294.06,271.83,302.87,261.44,302.92z M439.18,220.4c13.88,0.17,24.65,11.18,24.59,25.16
		c-0.05,13.86-11.08,24.63-25.11,24.52c-13.88-0.11-24.91-11.28-24.72-25.03C414.13,231.31,425.48,220.23,439.18,220.4z
		 M399.29,257.78c13.79-0.03,24.96,11.07,25,24.86c0.03,11.86-8.74,24.59-24.92,25.01c-13.66,0.35-24.9-11.2-24.91-24.95
		C374.43,268.81,385.39,257.82,399.29,257.78z M317.09,282.13c0.24-10.8,9.12-19.36,19.89-19.16c11.04,0.2,19.61,9.13,19.4,20.22
		c-0.2,10.63-9.57,19.7-19.91,19.28C325.28,302.03,316.84,293.17,317.09,282.13z M373.62,417.67c-26.72-0.1-48.42-21.9-48.62-48.84
		c-0.2-26.78,22.09-49.04,49.03-48.94c26.8,0.1,48.47,21.9,48.49,48.82C422.54,395.84,400.64,417.77,373.62,417.67z M438.25,346.57
		c-11.04,0.78-24.64-9.26-24.66-24.48c-0.02-13.95,10.81-25.04,24.62-25.18c12.12-0.12,24.76,8.6,25.29,24.62
		C463.96,335.53,452.48,346.58,438.25,346.57z M477.8,307.62c-13.72,0.26-25-11.45-24.88-25.03c0.13-13.88,11.24-24.9,25.03-24.81
		c13.83,0.09,25.11,11.26,24.92,24.97C502.69,295.37,493.52,307.33,477.8,307.62z"/>
	<path class="st6" d="M298.07,238.61c13.13-0.42,21.82-9.87,21.84-22.26c0.02-11.85-9.68-21.77-22.03-21.81
		c-11.99-0.02-21.93,9.84-22.03,21.86C275.75,228.58,285.91,239,298.07,238.61z M283.08,203.46c1.87-2.18,4.73-2.24,7.5,0.05
		c2.84,2.35,5.54,4.87,8.7,7.66c2.5-2.45,4.8-4.81,7.22-7.03c2.87-2.63,5.26-2.8,7.43-0.71c1.97,1.9,1.93,5.04-0.46,7.53
		c-2.07,2.15-4.46,3.98-7.21,6.39c2.27,2.14,3.89,3.66,5.5,5.19c3.39,3.23,3.85,5.66,1.54,8.14c-2.19,2.36-4.78,2.06-8.31-1
		c-1.72-1.49-3.41-3.02-6.16-5.47c-1.62,2.13-3.04,4.16-4.65,6.03c-0.9,1.05-2.02,2-3.22,2.7c-2.5,1.46-4.94,0.92-6.56-1.24
		c-1.53-2.04-1.48-4.12,0.51-6.21c2.27-2.4,4.75-4.6,7.37-7.1c-2.97-2.73-5.61-5.05-8.13-7.49
		C281.53,208.36,281.2,205.64,283.08,203.46z"/>
	<path class="st6" d="M343.33,282.85c0.14-3.56-3.01-6.68-6.71-6.65c-3.51,0.03-6.43,2.83-6.54,6.27c-0.12,3.61,2.96,6.66,6.7,6.63
		C340.28,289.08,343.19,286.3,343.33,282.85z"/>
</g>
<path class="st0" d="M135.35,283.74c-0.73-11.35,9.6-23.58,23.64-23.39c14.16,0.2,23.17,11.84,23.46,23.79
	c0.26,10.64-9.86,23.74-23.87,23.3C145.14,307.02,135.32,297.36,135.35,283.74z M158.96,294.35c6.03-0.04,10.44-4.34,10.45-10.17
	c0.01-6-4.69-10.93-10.51-11c-5.78-0.08-10.63,4.81-10.71,10.8C148.12,290.11,152.56,294.4,158.96,294.35z"/>
<path class="st0" d="M374.68,393.27c-13.52-0.02-24.77-11.16-24.43-24.2c0.35-13.44,11.35-24.03,24.84-23.93
	c13.2,0.1,23.75,10.85,24.02,24.06C399.39,381.95,387.34,394.21,374.68,393.27z"/>
<path class="st1" d="M158.96,294.35c-6.4,0.05-10.84-4.24-10.76-10.38c0.08-5.99,4.92-10.87,10.71-10.8
	c5.81,0.08,10.52,5.01,10.51,11C169.4,290.01,164.99,294.31,158.96,294.35z"/>
</svg>
